<svg xmlns="http://www.w3.org/2000/svg" width="93" height="23" viewBox="0 0 198 46" fill="none">
  <path d="M94.7608 0.383789H103.897L106.051 0.447768L108.009 0.639704L109.706 1.02358L110.685 1.40745L111.402 1.79132L112.055 2.30315L112.577 2.94293L113.034 3.90261L113.23 4.67036L113.295 5.18219V7.16552L113.164 9.78865L113.034 10.8123L112.773 11.58L112.381 12.2198L111.794 12.8596L110.815 13.5634L109.771 14.0752L108.792 14.4591L107.226 14.843L106.181 15.0349V15.1629L106.508 15.5467L107.03 15.9946L109.967 18.8736V19.0016H110.097L110.554 19.5134L111.402 20.3451L111.859 20.8569L113.034 22.0086L113.621 22.3924L114.078 22.5204L116.036 22.5844L116.297 22.8403L116.362 23.0962V23.672L116.297 23.736L115.775 23.8L107.878 23.8639H105.203L104.876 23.736L104.811 23.608V22.9043L105.007 22.5844L105.203 22.5204L106.965 22.4564L106.508 21.9446L106.116 21.6247V21.4967H105.986L105.529 20.9849L103.179 18.6817L102.723 18.1698L102.005 17.4661L101.548 16.9543L100.895 16.2505L100.243 15.7387L100.112 15.6747L92.2156 15.6107V19.4494L92.1503 22.5844H95.1523L95.2176 22.6483V23.608L95.0871 23.8H83.9927L83.7969 23.544V22.8403L83.9927 22.5844L86.7989 22.5204V4.47842L86.8642 1.66336H83.9927L83.7969 1.40745V0.639704L84.1232 0.447768L94.7608 0.383789ZM92.2156 1.66336V14.2671H104.55L105.659 14.1392L106.116 13.8833L106.704 13.3075L107.16 12.5397L107.356 11.644L107.421 11.0682V5.56606L107.16 4.5424L106.769 3.90261L106.116 3.26283L105.333 2.751L104.289 2.36713L102.396 1.98325L100.83 1.79132L99.7206 1.72734L97.1754 1.66336H92.2156Z" fill="currentColor"></path>
  <path d="M139.785 0.383789H147.224L148.791 0.447768L150.553 0.639704L152.38 1.02358L153.555 1.40745L154.534 1.91928L155.186 2.4311L155.708 2.94293L156.165 3.6467L156.557 4.47842L156.687 5.05423L156.753 5.63004V17.0182L156.687 18.2978L156.492 19.0016L155.969 19.9612L155.382 20.665L154.86 21.1129L154.012 21.6247L152.837 22.1365L151.858 22.4564L150.226 22.9043L148.595 23.2242L146.637 23.4801L144.157 23.672L140.698 23.8H128.886L128.69 23.608L128.625 23.4161V22.8403L128.756 22.5844H131.692L131.627 16.1865V5.31014L131.692 1.66336H128.886L128.69 1.47143L128.625 1.21551V0.639704L128.821 0.447768L139.785 0.383789ZM137.044 1.66336L136.978 1.79132V22.5844H145.854L147.942 22.5204L148.856 22.3924L149.443 22.1365L150.292 21.4328L150.814 20.793L151.14 20.0252L151.336 19.1295L151.401 18.6177V6.90961L151.271 5.82197L150.879 4.73434L150.422 4.03057L149.77 3.39078L148.856 2.81498L147.877 2.4311L146.637 2.11121L145.267 1.8553L143.896 1.72734L142.395 1.66336H137.044Z" fill="currentColor"></path>
  <path d="M187.302 0H188.346L190.239 0.127957L191.87 0.383872L193.306 0.767743L194.611 1.27957L195.525 1.7914L196.243 2.36721L196.83 2.94302L197.417 3.83872L197.744 4.60646L197.939 5.43818L198.005 6.78173V9.02099L197.939 17.4022L197.809 18.3619L197.417 19.3855L196.96 20.0893L196.243 20.857L195.72 21.3049L194.872 21.8167L193.763 22.3285L191.805 22.9043L189.194 23.5441L186.845 23.928L184.952 24.1199L182.668 24.2479H180.058L178.296 24.1199L176.468 23.8L175.033 23.4162L173.988 23.0323L173.205 22.5845L172.553 22.0726L171.835 21.3689L171.378 20.6651L170.986 19.8334L170.791 19.1296L170.66 17.914V7.22958L170.791 6.01399L171.052 5.31023L171.574 4.35055L172.161 3.71076L172.487 3.39087L173.14 2.87904L174.25 2.23925L175.881 1.59947L177.774 1.08764L179.797 0.639786L182.995 0.191936L185.148 0.0639786L187.302 0ZM181.363 1.27957L179.862 1.34355L179.209 1.53549L178.296 2.04732L177.643 2.62312L177.121 3.19893L176.664 3.96667L176.338 4.86238L176.207 5.63012L176.142 6.46184V16.8264L176.273 18.1059L176.534 19.0656L176.86 19.7054L177.317 20.2812L178.035 20.985L179.014 21.6248L180.058 22.0726L181.559 22.5205L183.19 22.8404L184.3 22.9683H188.15L189.26 22.8404L190.173 22.3925L191.022 21.7527L191.544 21.1769L192.066 20.1533L192.327 19.1936L192.457 18.042V6.84571L192.327 5.95001L192.066 5.18227L191.609 4.35055L190.956 3.5828L189.977 2.87904L188.738 2.23925L187.498 1.7914L186.192 1.47151L185.279 1.34355L184.3 1.27957H181.363Z" fill="currentColor"></path>
  <path d="M54.9469 0.383789H57.4921L57.8837 0.831639L59.1236 3.32681L59.8415 4.79831L61.0815 7.35746L61.9951 9.27682L63.2351 11.836L64.4098 14.2032L65.2582 15.9946L66.3676 18.2978L67.0855 19.8333L68.1297 22.0086L68.3255 22.3924L68.5213 22.5204L71.3275 22.5844L71.3928 22.6483L71.458 23.0962V23.672L71.3275 23.8L63.1698 23.8639H60.3636L60.0373 23.8L59.972 23.608V22.8403L60.1026 22.5204L62.5825 22.5844L61.7341 20.793L61.0162 19.1935L60.5594 18.2978L60.4941 18.2338L45.7451 18.1698L45.6146 18.5537L44.8314 20.2172L44.1135 21.7526L43.722 22.4564L47.1808 22.5844L47.3766 22.7123V23.4161L47.2461 23.8H36.0864L35.8906 23.3521V22.9043L36.1517 22.5844L39.8063 22.5204L40.0673 22.3924L41.1768 20.0892L42.0252 18.2978L42.9388 16.3784L44.1788 13.8193L45.2882 11.5161L45.8756 10.2365L47.0503 7.80531L48.1597 5.4381L49.0081 3.71068L49.5302 2.68702L50.1176 2.04723L51.8796 1.15153L53.1196 0.639704L53.9027 0.447768L54.9469 0.383789ZM53.1196 2.94293L52.5975 3.96659L51.4228 6.46176L50.2481 8.89295L49.0081 11.5161L47.8987 13.8193L47.0503 15.6107L46.463 16.7623V16.8903H59.8415L59.1889 15.3548L58.3405 13.6274L57.4921 11.836L56.5132 9.85262L55.6648 8.06122L54.4248 5.50208L53.3806 3.19885L53.2501 2.94293H53.1196Z" fill="currentColor"></path>
  <path d="M10.8986 0.383789H20.0352L22.1888 0.447768L23.6898 0.575725L25.3866 0.895618L26.5613 1.27949L27.475 1.72734L28.0624 2.17519L28.5192 2.62304L29.0413 3.51874L29.2371 4.09455L29.3676 4.79831L29.4328 5.56606L29.3676 8.06122L29.2371 10.3645L29.0413 11.3241L28.6497 12.0919L27.9318 12.8596L26.9529 13.4994L25.7129 14.0112L24.0162 14.5231L22.1888 14.9709L19.8394 15.3548L18.4037 15.4827L17.229 15.5467L14.6838 15.6107H8.35344V22.4564L8.87553 22.5204L11.2902 22.5844L11.3555 22.6483V23.672L11.1597 23.8H0.261045L0.0652613 23.672L0 23.4801V22.7763L0.195784 22.5204L3.00202 22.5844V1.66336H0.261045L0.0652613 1.5354L0 1.34347V0.575725L0.130523 0.447768L10.8986 0.383789ZM8.35344 1.66336V14.2671H20.231L21.471 14.2032L22.0583 14.0112L22.6457 13.5634L23.233 12.7317L23.4288 12.0919L23.5593 11.0042V5.56606L23.2983 4.5424L22.9067 3.90261L22.5804 3.51874L21.7973 2.94293L20.8183 2.49508L19.9047 2.23917L18.1426 1.91928L17.0332 1.79132L15.8585 1.72734L13.3133 1.66336H8.35344Z" fill="currentColor"></path>
  <path d="M102.984 36.8516H104.029L104.094 36.9155V40.7543H108.923L109.184 40.8182V36.9795L109.315 36.8516H110.359L110.424 37.1075L110.359 45.7446L110.294 45.8086H109.706L109.315 45.6806L109.249 45.6166V41.7139H104.094V45.6806L104.029 45.7446H103.05L102.984 45.6166V36.8516Z" fill="currentColor"></path>
  <path d="M72.3128 36.5959L72.6391 36.6599L72.9001 36.9798L73.7485 38.7072L74.5969 40.5626L75.38 42.2261L76.359 44.3374L76.8811 45.6169L76.8158 45.8728H76.359L75.9674 45.7449L75.5758 45.297L74.858 43.6976L74.7274 43.5056H70.2897L69.8328 43.5696L69.0497 45.425L68.7887 45.7449L68.5276 45.8089H68.0708L67.875 45.7449L67.9403 45.297L68.5929 43.8255L69.1802 42.546L69.7023 41.5223L70.5507 39.6029L71.3338 38.0035L71.7907 37.1718L72.117 36.7239L72.3128 36.5959ZM72.378 38.2594L72.0517 38.7712L71.0728 40.8185L70.3549 42.354V42.482L70.616 42.546L74.2706 42.6099L74.0748 41.9702L73.1612 39.7949L72.4433 38.2594H72.378Z" fill="currentColor"></path>
  <path d="M138.616 36.6592H140.051L141.226 36.9151L142.009 37.235L142.335 37.6189L142.401 37.7468V38.1947L142.205 38.5146L141.879 38.4506L140.639 37.8748L140.051 37.6828L139.66 37.6189H138.942L138.224 37.8108L137.702 38.2586L137.506 38.7705V39.2823L137.702 39.7941L138.159 40.178L138.877 40.4979L140.965 41.0737L141.683 41.4576L142.335 42.0334L142.727 42.6732L142.792 42.9291V43.8888L142.596 44.5286L142.14 45.1044L141.618 45.5522L140.834 45.8721L140.182 46.0001H138.942L137.702 45.6802L136.658 45.1683L136.266 44.8484L136.07 44.5286L136.136 44.0807L136.397 43.8888L136.723 43.9527L137.114 44.2087L137.898 44.6565L138.811 44.9764L139.203 45.0404H140.247L140.9 44.7845L141.226 44.5286L141.552 44.0807L141.618 43.8248V43.249L141.422 42.8011L141.095 42.4812L140.573 42.2253L138.289 41.5855L137.376 41.1377L136.788 40.6259L136.397 39.9861L136.331 39.7302V38.7065L136.592 38.0027L137.18 37.3629L137.832 36.9151L138.289 36.7232L138.616 36.6592Z" fill="currentColor"></path>
  <path d="M89.3376 36.6592H90.7733L91.687 36.8511L92.5354 37.171L93.1227 37.6189L93.449 38.1307V38.5146L93.2532 38.8984L92.9922 38.8345L92.0133 38.1947L91.1649 37.8108L90.5775 37.6828H89.4681L88.6197 37.9388L87.9671 38.3226L87.3797 38.8984L86.9229 39.7941L86.7271 40.4979L86.6618 41.0097V41.7775L86.8576 42.8651L87.2492 43.5689L87.9018 44.2726L88.6197 44.7205L89.4681 44.9764H90.7733L91.5564 44.7205L92.3396 44.2726L92.9922 43.8248L93.3838 43.7608L93.5143 43.8888L93.5795 44.2726L93.3185 44.7205L92.7311 45.2323L91.948 45.6802L91.3607 45.8721L90.5123 46.0001H89.4681L88.4892 45.8081L87.706 45.4882L87.0534 44.9764L86.4661 44.3366L85.8787 43.3769L85.5524 42.4812L85.4219 41.6495V40.9457L85.5524 40.178L85.8787 39.2823L86.4008 38.4506L87.1839 37.6189L87.8365 37.171L88.4892 36.8511L89.3376 36.6592Z" fill="currentColor"></path>
  <path d="M60.04 36.6592L60.4316 36.7871L60.3663 37.171L58.9958 39.1543L58.2127 40.242L57.6906 41.0097L57.2338 41.6495L56.9075 42.4173L56.7769 45.6162L56.5812 45.8081L55.9285 45.7441L55.7328 45.6162L55.6675 42.3533L55.1454 41.4576L54.4928 40.5619L52.6002 37.7468L52.1434 37.0431L52.0781 36.7871L52.1434 36.7232H52.7307L53.1876 36.8511L53.6444 37.3629L56.2548 41.2017L56.5812 40.8818L57.038 40.242L57.7559 39.1543L58.4737 38.1307L59.1263 37.299L59.4527 36.9791L59.8442 36.7232L60.04 36.6592Z" fill="currentColor"></path>
  <path d="M120.141 36.8516H127.059L127.255 36.9795V37.5553L127.124 37.7473L126.928 37.8112L124.187 37.8752L124.122 45.7446L123.274 45.8086L123.013 45.6806L122.947 42.3537V37.8752H120.141L119.945 37.4274L120.076 36.9155L120.141 36.8516Z" fill="currentColor"></path>
</svg>